# xmcd
#
# Track frame offsets:
#	150
#	9624
#	22104
#	38087
#	50567
#	77836
#	98342
#	117001
#	135681
#	169614
#	210090
#	225839
#	237809
#	259875
#	273540
#	295974
#	310348
#
# Disc length: 4498 seconds
#
# Revision: 0
# Processed by: cddbd v1.5.1PL2 Copyright (c) Steve Scherf et al.
# Submitted via: dBpowerAMP V4.0
#
DISCID=d9119011
DTITLE=James Brown - Star Time - Disc 2
DYEAR=1965
DGENRE=R&B
TTITLE0=Papa's got a brand new bag (Pt 1)
TTITLE1=I got you (I feel Good)
TTITLE2=Ain't that a groove
TTITLE3=It's a man's world
TTITLE4=Money won't change you
TTITLE5=Don't be a dropout
TTITLE6=Bring it up (hipsters avenue)
TTITLE7=Let yourself go
TTITLE8=Cold sweat
TTITLE9=Get it together
TTITLE10=Can't stand myself (When you touch me)
TTITLE11=I got the feelin'
TTITLE12=Licking stick Licking stick
TTITLE13=Say it loud I am black and I am proud (Pt 1)
TTITLE14=There was a time (live)
TTITLE15=Give it up or turnit a loose
TTITLE16=I don't want nobody to give me nothing
EXTD=
EXTT0=
EXTT1=
EXTT2=
EXTT3=
EXTT4=
EXTT5=
EXTT6=
EXTT7=
EXTT8=
EXTT9=
EXTT10=
EXTT11=
EXTT12=
EXTT13=
EXTT14=
EXTT15=
EXTT16=
PLAYORDER=
